<?xml version="1.0" encoding="utf-8"?>
<!-- Generator: Adobe Illustrator 24.1.2, SVG Export Plug-In . SVG Version: 6.00 Build 0)  -->
<svg version="1.1" id="Layer_1" xmlns="http://www.w3.org/2000/svg" xmlns:xlink="http://www.w3.org/1999/xlink" x="0px" y="0px"
	 viewBox="0 0 500 500" style="enable-background:new 0 0 500 500;" xml:space="preserve">
<style type="text/css">
	.st0{fill:#FCD100;}
</style>
<g>
	<g>
		<g>
			<path class="st0" d="M347.11,229.85c-13.72,1.72-27.25,3.36-40.76,5.15c-2.56,0.34-3.86,0.09-3.64-2.97
				c0.97-13.55,1.79-27.1,2.79-42.51c3.32,6.29,5.81,11,8.37,15.85c20.25-28.64,14.12-72.65-13.2-96.79
				c-22.19-19.61-55.85-24.73-81.45-12.41c-29.48,14.19-46.25,41.8-44.31,73.23c1.14,18.45,7.98,34.56,20.95,47.82
				c2.56,2.62,2.76,4.5,1.27,7.66c-1.83,3.89-3.04,8.1-4.25,12.25c-2.13,7.36-2.15,7.47-8.06,2.14
				c-14.06-12.68-24.11-27.98-29.37-46.2c-17-58.97,22.14-118.85,83.44-125.85c56.51-6.45,101.95,33.84,109.06,83.62
				c3.37,23.62-1.05,45.43-13.31,65.63c-2.67,4.4-1.37,5.66,2.42,7.24c3.15,1.32,6.12,3.06,9.13,4.67
				C346.52,228.56,346.65,229.08,347.11,229.85z"/>
		</g>
		<g>
			<path class="st0" d="M247.98,263.49c-13.93,0.24-28.31-3.8-42.15-10.22c-3.52-1.63-5.03-3.33-3.99-7.76
				c4.2-17.74,11.01-33.9,26.21-45.08c15.35-11.29,33.45-10.24,47.76,2.32c13.52,11.86,19.76,27.53,23.52,44.55
				c0.87,3.93-1.94,4.7-4.28,5.84C280.67,260.1,265.52,263.9,247.98,263.49z"/>
		</g>
		<g>
			<path class="st0" d="M228,160.67c0.08-12.44,10.47-22.56,22.87-22.26c12.1,0.29,22.04,10.46,22.06,22.55
				c0.02,12.37-10.31,22.62-22.69,22.54C237.72,183.41,227.92,173.34,228,160.67z"/>
		</g>
		<g>
			<path class="st0" d="M309.52,168.3c-2.17-1.65-7.77,3.27-8.1-2.94c-0.37-7.02,5.62-2.78,8.66-3.65c2.1-0.6,4.51-0.06,6.79-0.1
				c2.37-0.04,3.1,1.24,3.15,3.41c0.06,2.26-0.77,3.37-3.13,3.3C314.61,168.25,312.34,168.3,309.52,168.3z"/>
		</g>
		<g>
			<path class="st0" d="M247.17,104.39c1.65-2.36-3-8.42,3.1-8.49c6.83-0.08,2.25,6.24,3.51,9.46c0.38,0.98,0.12,2.23,0.05,3.35
				c-0.16,2.51,0.93,5.69-3.61,5.6c-4.34-0.09-2.72-3.22-3.01-5.34C247.02,107.65,247.17,106.28,247.17,104.39z"/>
		</g>
		<g>
			<path class="st0" d="M287.12,108.25c-2.59,4.24-5.28,8.98-8.36,13.45c-0.85,1.23-2.45-0.18-3.61-0.78
				c-1.42-0.74-1.97-1.75-1.06-3.3c2.42-4.11,4.8-8.24,7.2-12.37c0.98-1.68,2.14-1.12,3.39-0.33
				C285.79,105.63,287.32,105.92,287.12,108.25z"/>
		</g>
		<g>
			<path class="st0" d="M190.06,168.71c-2.8-2.02-8.37,2.76-8.78-3.23c-0.47-6.89,5.7-3.79,8.55-3.55c3.14,0.26,9.53-3.77,9.29,3.36
				C198.92,171.52,192.88,166.48,190.06,168.71z"/>
		</g>
		<g>
			<path class="st0" d="M207.21,191.94c0.23,1.83-0.89,2.27-1.84,2.82c-3.5,2.05-6.99,4.12-10.51,6.13
				c-1.57,0.9-3.06,1.87-4.29-0.74c-0.95-2.02-1.89-3.55,0.75-4.99c3.56-1.93,7.07-3.97,10.5-6.13
				C206.01,186.39,205.75,190.74,207.21,191.94z"/>
		</g>
		<g>
			<path class="st0" d="M311.47,132.15c0.71,2.02-1.2,2.21-2.17,2.82c-3.27,2.04-6.71,3.8-9.99,5.83c-2.03,1.25-3.42,1.64-4.8-0.97
				c-1.18-2.24-1.29-3.53,1.2-4.8c3.43-1.74,6.81-3.66,10.01-5.79C309.63,126.62,310.21,129.89,311.47,132.15z"/>
		</g>
		<g>
			<path class="st0" d="M207.21,138.01c-1.55,1.08-0.97,5.52-5.01,3.14c-3.53-2.08-7.09-4.1-10.67-6.09
				c-2.29-1.27-2.51-2.83-1.2-5.03c1.27-2.14,2.71-1.96,4.52-0.89c3.52,2.09,7.08,4.12,10.61,6.19
				C206.42,135.88,207.51,136.37,207.21,138.01z"/>
		</g>
		<g>
			<path class="st0" d="M226.84,117.92c0.46,2.43-1.05,2.87-2.16,3.49c-1.24,0.69-2.61,1-3.52-0.56c-2.41-4.09-4.72-8.24-7.19-12.29
				c-1.06-1.74-0.09-2.57,1.21-3.12c1.28-0.54,2.75-2.55,4.07-0.45C222.02,109.38,224.53,113.94,226.84,117.92z"/>
		</g>
	</g>
</g>
<g>
	<g>
		<path class="st0" d="M35.68,302.84c-1.65,0-2.66,0.42-3.04,1.25c-0.29,0.62-0.55,1.84-0.81,3.65c-0.25,1.81-0.38,3.46-0.38,4.94
			c0,0.88,0.29,1.49,0.86,1.83c0.57,0.33,1.65,0.5,3.22,0.5c1.05,0,1.83-0.19,2.33-0.57s0.85-1.03,1.04-1.93
			c0.55-2.6,1.67-3.9,3.36-3.9c2.91,0,4.37,3.48,4.37,10.45c0,4.41-0.63,7.66-1.9,9.74c-0.76,1.26-1.81,1.9-3.15,1.9
			c-1.41,0-2.22-0.94-2.43-2.83c-0.12-1.22-0.27-2.08-0.45-2.58c-0.18-0.5-0.52-0.98-1.02-1.43c-0.79-0.74-1.93-1.11-3.44-1.11
			c-1.07,0-1.8,0.19-2.18,0.57c-0.38,0.38-0.55,1.11-0.5,2.18c0,0.19-0.01,1.3-0.04,3.33c0,4.13,0.43,6.65,1.29,7.55
			c0.29,0.36,0.58,0.59,0.88,0.7s1.08,0.26,2.34,0.45c0.62,0.1,1.15,0.42,1.58,0.97c0.43,0.55,0.64,1.18,0.64,1.9
			c0,1.84-1.07,3.02-3.22,3.54c-3.1,0.74-7.46,1.11-13.06,1.11c-4.92,0-8.3-0.29-10.16-0.86c-0.84-0.26-1.52-0.74-2.04-1.43
			c-0.53-0.69-0.79-1.46-0.79-2.29c0-1.05,0.38-1.9,1.15-2.54c0.19-0.14,0.85-0.44,1.97-0.9c1.34-0.52,2.14-1.74,2.4-3.65
			c0.43-2.93,0.64-9.63,0.64-20.08c0-4.51-0.16-7.43-0.47-8.77c-0.31-1.34-1.06-2.27-2.25-2.79c-1.19-0.52-1.97-0.98-2.34-1.38
			c-0.37-0.39-0.55-0.96-0.55-1.7c0-1.05,0.51-1.93,1.54-2.63c1.03-0.7,2.29-1.06,3.79-1.06c0.95,0,2.35,0.07,4.19,0.21
			c3.89,0.31,8.54,0.47,13.96,0.47c8.66,0,14.5-0.24,17.5-0.72c0.41-0.05,0.72-0.07,0.93-0.07c0.83,0,1.63,0.48,2.4,1.43
			c2.1,2.67,3.15,5.63,3.15,8.88c0,1.48-0.35,2.66-1.04,3.54c-0.69,0.88-1.6,1.32-2.72,1.32c-0.84,0-1.47-0.17-1.9-0.5
			c-0.43-0.33-1.53-1.5-3.29-3.51c-1.07-1.24-2.37-2.05-3.88-2.43C42.63,303.21,39.81,302.96,35.68,302.84z"/>
		<path class="st0" d="M84.64,294.46c6.13,0,11.49,1.75,16.07,5.26c3.1,2.41,5.62,5.54,7.55,9.38c1.88,3.82,2.83,7.64,2.83,11.45
			c0,5.63-1.86,10.67-5.58,15.1c-3.15,3.77-7.27,6.48-12.35,8.12c-3.13,1-6.26,1.5-9.41,1.5c-4.13,0-8.08-0.86-11.85-2.58
			c-4.56-2.08-8.12-5.21-10.7-9.41c-2.51-4.06-3.76-8.53-3.76-13.42c0-5.68,1.61-10.69,4.83-15.03c2.86-3.87,6.72-6.71,11.56-8.52
			C77.08,295.08,80.68,294.46,84.64,294.46z M81.24,304.73c-2,0-3.59,0.89-4.76,2.68c-0.91,1.34-1.36,2.92-1.36,4.76
			c0,2.7,0.55,5.82,1.65,9.36c1.1,3.54,2.48,6.69,4.15,9.43c0.74,1.17,1.65,2.1,2.74,2.79c1.09,0.69,2.19,1.04,3.31,1.04
			c1.81,0,3.27-0.68,4.38-2.04s1.66-3.15,1.66-5.37c0-2.89-0.47-6-1.4-9.34c-0.93-3.34-2.14-6.19-3.62-8.55
			c-0.91-1.46-1.96-2.6-3.15-3.44C83.66,305.22,82.46,304.78,81.24,304.73z"/>
		<path class="st0" d="M141.48,294.46c3.48,0,6.85,0.76,10.09,2.29c1.53,0.72,2.59,1.07,3.19,1.07c0.43,0,1.12-0.11,2.08-0.32
			c0.31-0.07,0.66-0.11,1.04-0.11c1.24,0,2.33,0.57,3.26,1.72c2.29,2.77,3.44,6.2,3.44,10.31c0,2.89-0.99,5-2.97,6.33
			c-1.07,0.72-2.28,1.07-3.61,1.07c-1.22,0-2.21-0.26-2.97-0.79c-0.76-0.52-1.5-1.46-2.22-2.79c-1.03-1.88-1.86-3.24-2.51-4.06
			c-0.64-0.82-1.43-1.57-2.36-2.24c-2.31-1.62-4.74-2.43-7.27-2.43c-2.46,0-4.41,0.89-5.85,2.67c-1.44,1.78-2.17,4.16-2.17,7.14
			c0,4.1,1.04,7.86,3.11,11.27c2.82,4.56,6.85,6.84,12.1,6.84c1.93,0,3.85-0.32,5.74-0.97c1.9-0.64,3.37-1.48,4.42-2.51
			c0.91-0.86,1.65-1.29,2.22-1.29c0.83,0,1.55,0.39,2.15,1.16c0.6,0.78,0.89,1.71,0.89,2.81c0,1.38-0.42,2.93-1.25,4.65
			c-0.84,1.72-1.84,3.07-3.01,4.04c-0.5,0.41-1.54,0.76-3.11,1.07c-0.91,0.17-2.11,0.61-3.61,1.32c-3.53,1.69-7.21,2.54-11.02,2.54
			c-3.98,0-7.96-0.9-11.92-2.68c-4.61-2.08-8.24-5.26-10.92-9.56c-2.63-4.17-3.94-8.54-3.94-13.1c0-5.3,1.65-10.13,4.94-14.5
			c2.86-3.79,6.6-6.69,11.2-8.7C134.14,295.22,137.76,294.46,141.48,294.46z"/>
		<path class="st0" d="M219.43,313.36v8.73c0,5.27-0.39,9.01-1.18,11.2c-1.69,4.63-5.42,7.98-11.17,10.06
			c-3.48,1.29-7.42,1.93-11.81,1.93c-7.66,0-13.79-1.83-18.4-5.48c-2.24-1.79-3.79-3.87-4.65-6.23s-1.29-5.77-1.29-10.24
			c0-1.74,0.06-4.6,0.18-8.59c0.07-2.82,0.11-4.68,0.11-5.58c0-1.98-0.15-3.35-0.45-4.12c-0.3-0.76-0.95-1.48-1.95-2.15
			c-1.58-1.03-2.36-2.17-2.36-3.44c0-0.93,0.4-1.75,1.2-2.47s1.85-1.2,3.17-1.47c2.62-0.53,5.73-0.79,9.31-0.79
			c3.94,0,7.21,0.3,9.81,0.9c2.55,0.57,3.83,1.87,3.83,3.9c0,1-0.37,1.8-1.11,2.4c-0.17,0.14-0.88,0.51-2.15,1.11
			c-0.76,0.33-1.28,0.94-1.56,1.83c-0.27,0.88-0.41,2.34-0.41,4.37c0,2.08-0.1,6.56-0.29,13.46c-0.12,4.1,0.99,7.23,3.33,9.38
			c1.91,1.77,4.37,2.65,7.37,2.65c1.91,0,3.64-0.35,5.19-1.06c1.55-0.7,2.73-1.67,3.54-2.88c0.64-0.93,1.09-1.97,1.32-3.11
			c0.24-1.15,0.36-2.71,0.36-4.69v-7.87c-0.12-6.04-0.29-9.57-0.52-10.61c-0.23-1.04-1-1.85-2.31-2.45
			c-1.24-0.55-2.09-1.05-2.54-1.5c-0.45-0.45-0.68-1.01-0.68-1.68c0-1.43,0.85-2.48,2.56-3.13c1.71-0.66,4.44-0.98,8.21-0.98
			c3.7,0,6.38,0.32,8.04,0.97c1.66,0.64,2.49,1.67,2.49,3.08c0,0.69-0.14,1.21-0.43,1.54c-0.29,0.33-1.04,0.85-2.25,1.54
			c-1.27,0.72-1.99,1.49-2.17,2.31C219.59,305,219.48,308.06,219.43,313.36z"/>
		<path class="st0" d="M248.67,294.46c2.46,0,5.68,0.61,9.66,1.83c0.48,0.14,0.86,0.21,1.15,0.21c0.24,0,0.95-0.21,2.15-0.64
			c0.38-0.14,0.79-0.21,1.22-0.21c1.6,0,3.29,1.26,5.06,3.79c1.78,2.53,2.67,4.94,2.67,7.23c0,1.34-0.4,2.46-1.2,3.38
			c-0.8,0.92-1.77,1.38-2.92,1.38c-0.95,0-1.73-0.19-2.33-0.57c-0.6-0.38-1.91-1.51-3.94-3.4c-2.86-2.67-5.68-4.01-8.45-4.01
			c-1.34,0-2.4,0.32-3.2,0.97c-0.8,0.64-1.2,1.49-1.2,2.54c0,2.08,1.83,3.64,5.48,4.69c4.94,1.46,8.1,2.52,9.49,3.19
			c6.08,2.96,9.13,7.31,9.13,13.06c0,5.08-2.08,9.23-6.23,12.46c-4.25,3.29-9.79,4.94-16.64,4.94c-3.05,0-6.28-0.36-9.66-1.09
			s-5.83-1.58-7.34-2.56c-1.15-0.76-2.18-2.43-3.1-4.99c-0.92-2.56-1.38-5.06-1.38-7.5c0-1.17,0.24-2.05,0.72-2.65
			c0.6-0.76,1.35-1.15,2.25-1.15c0.91,0,1.78,0.47,2.61,1.4c0.5,0.52,1.68,2.21,3.54,5.05c0.88,1.34,2.28,2.45,4.21,3.33
			c1.92,0.88,3.91,1.32,5.96,1.32c1.77,0,3.2-0.33,4.29-0.98s1.65-1.5,1.65-2.52c0-0.95-0.43-1.78-1.29-2.47
			c-0.86-0.69-2.25-1.34-4.19-1.93c-3.41-1.07-6.01-2.06-7.8-2.95c-1.79-0.9-3.46-2.02-5.01-3.38c-3.77-3.34-5.66-7.13-5.66-11.38
			c0-2.1,0.49-4.15,1.47-6.14c0.98-1.99,2.36-3.72,4.15-5.17C238.01,296.14,242.9,294.46,248.67,294.46z"/>
		<path class="st0" d="M297.35,311.1v16.43c0,3.7,0.32,6.08,0.97,7.16c0.79,1.26,2.45,1.9,4.97,1.9c2.72,0,4.87-0.6,6.44-1.79
			c1.58-1.19,2.67-3.05,3.29-5.58c0.36-1.55,1.17-2.33,2.43-2.33s2.3,0.57,3.1,1.7c0.8,1.13,1.2,2.61,1.2,4.42
			c0,2.96-1.1,6.12-3.29,9.49c-0.69,1.07-1.3,1.81-1.83,2.2s-1.16,0.59-1.9,0.59l-7.95-0.97h-25.02c-1.65,0-2.8-0.19-3.47-0.57
			c-0.98-0.55-1.47-1.37-1.47-2.47c0-0.67,0.16-1.16,0.48-1.49s1.1-0.78,2.34-1.38c1.36-0.64,2.23-1.55,2.61-2.72
			c0.31-0.98,0.46-3.83,0.46-8.55c0-2.2-0.06-5.36-0.18-9.49c-0.12-3.96-0.19-6.94-0.21-8.95c0-1.91-0.15-3.21-0.45-3.92
			c-0.3-0.7-0.92-1.21-1.88-1.52c-1.58-0.55-2.58-0.99-3.01-1.32c-0.76-0.6-1.14-1.28-1.14-2.04c0-1.74,1.44-3.07,4.33-3.97
			c2.46-0.79,5.75-1.18,9.88-1.18c4.63,0,8.09,0.24,10.38,0.72c2.96,0.64,4.44,1.93,4.44,3.87c0,0.79-0.2,1.37-0.59,1.75
			c-0.39,0.38-1.35,0.9-2.88,1.54c-0.91,0.41-1.48,1.1-1.72,2.08C297.47,305.67,297.35,307.81,297.35,311.1z"/>
		<path class="st0" d="M368.11,319.59l6.76,14.5c0.64,1.34,1.18,2.21,1.61,2.63c0.43,0.42,1.09,0.7,1.97,0.84
			c1.72,0.26,2.58,1.13,2.58,2.61c0,1.74-1.05,2.99-3.15,3.76c-2.1,0.76-5.54,1.15-10.31,1.15c-5.39,0-9.39-0.23-11.99-0.68
			c-1.19-0.21-2.14-0.65-2.85-1.31c-0.7-0.66-1.06-1.45-1.06-2.38c0-0.72,0.18-1.27,0.55-1.66c0.37-0.39,1.06-0.76,2.06-1.09
			c1.12-0.38,1.68-1.03,1.68-1.93c0-1.6-0.97-2.54-2.9-2.83c-2.08-0.29-5-0.43-8.77-0.43c-3.17,0-5.07,0.19-5.69,0.57
			c-0.38,0.24-0.72,0.67-1,1.29s-0.43,1.22-0.43,1.79c0,0.53,0.1,0.87,0.3,1.02c0.2,0.16,0.86,0.41,1.99,0.77
			c1.46,0.43,2.18,1.29,2.18,2.58c0,2.84-3.4,4.26-10.2,4.26c-3.87,0-6.71-0.26-8.52-0.79c-1.67-0.5-2.51-1.6-2.51-3.29
			c0-0.74,0.18-1.31,0.55-1.72c0.37-0.41,1.03-0.78,1.99-1.11c1.55-0.55,2.73-1.32,3.53-2.31s1.94-3.11,3.42-6.35l5.05-11.06
			c1.86-4.06,3.11-7.09,3.74-9.11c0.63-2.02,0.96-3.99,0.98-5.92c0.02-2.05,0.15-3.48,0.38-4.28c0.23-0.8,0.73-1.58,1.52-2.34
			c1.65-1.67,3.75-2.51,6.3-2.51c2.41,0,4.71,0.94,6.91,2.83C357.85,299.65,362.29,307.15,368.11,319.59z M343.2,324.1h7.01
			c1.29,0,1.93-0.29,1.93-0.86c0-0.79-0.89-2.72-2.68-5.8c-0.81-1.41-1.43-2.35-1.86-2.83c-0.43-0.48-0.88-0.72-1.36-0.72
			c-0.86,0-1.58,0.8-2.15,2.4c-0.1,0.21-0.44,1.06-1.04,2.54c-1,2.43-1.5,3.89-1.5,4.37C341.55,323.8,342.1,324.1,343.2,324.1z"/>
		<path class="st0" d="M402.15,297.18l17.82,15.61c1.67,1.46,2.88,2.18,3.61,2.18c1.24,0,1.86-1.32,1.86-3.97
			c0-3.01-0.18-5.06-0.54-6.16c-0.36-1.1-1.11-1.92-2.25-2.47c-0.93-0.45-1.59-0.94-1.97-1.45c-0.38-0.51-0.57-1.17-0.57-1.99
			c0-2,1.37-3.29,4.12-3.87c1.12-0.24,3.08-0.36,5.87-0.36c3.6,0,6.1,0.21,7.48,0.64c2.19,0.67,3.29,1.93,3.29,3.79
			c0,1.55-0.89,2.72-2.68,3.51c-0.72,0.31-1.21,0.58-1.47,0.82s-0.49,0.6-0.68,1.07c-0.64,1.58-0.98,4.56-1,8.95v11.67
			c0,1.79,0.01,4.24,0.04,7.34c0.02,4.2-0.23,7.23-0.75,9.09c-0.64,2.31-1.81,3.47-3.51,3.47c-0.74,0-1.38-0.16-1.92-0.47
			s-1.43-1.03-2.67-2.15l-21.22-19c-1.48-1.34-2.71-2-3.69-2c-1.46,0-2.18,2.02-2.18,6.05c0,3.32,0.18,5.58,0.55,6.8
			s1.13,2.11,2.27,2.68c1.6,0.79,2.4,1.81,2.4,3.08c0,3.32-3.57,4.97-10.7,4.97c-3.22,0-5.72-0.42-7.5-1.27s-2.67-2.05-2.67-3.6
			c0-0.81,0.17-1.42,0.5-1.83c0.33-0.41,1.09-0.95,2.25-1.65c1.12-0.67,1.8-1.85,2.04-3.54c0.41-3.08,0.61-7.5,0.61-13.28
			c0-6.16-0.36-10.64-1.07-13.46c-0.26-1.03-0.6-1.79-1-2.29c-0.41-0.5-1.07-0.98-2-1.43c-1.07-0.53-1.82-1.04-2.24-1.54
			s-0.63-1.11-0.63-1.83c0-2.29,1.97-3.73,5.91-4.33c1.34-0.19,3.67-0.29,7.02-0.29c1.91,0,3.3,0.15,4.17,0.45
			C399.92,295.46,400.95,296.13,402.15,297.18z"/>
		<path class="st0" d="M450.72,295.46h18.4c3.72,0,6.44-0.08,8.14-0.23c1.71-0.16,3.37-0.47,4.99-0.95c0.5-0.14,0.89-0.21,1.18-0.21
			c1.24,0,2.34,0.67,3.29,2c1.58,2.17,2.36,4.8,2.36,7.87c0,1.55-0.33,2.77-0.98,3.67s-1.56,1.34-2.7,1.34
			c-0.79,0-1.4-0.16-1.84-0.48s-1.03-1.04-1.77-2.17c-1.05-1.6-2.38-2.67-3.99-3.2c-1.61-0.54-4.25-0.81-7.93-0.81
			c-2.74,0-4.42,0.49-5.01,1.47c-0.31,0.53-0.5,1.23-0.56,2.11s-0.09,3.14-0.09,6.76c0,1.43,0.24,2.32,0.72,2.67
			c0.48,0.35,1.73,0.52,3.76,0.52c1,0,1.73-0.21,2.18-0.63c0.45-0.42,0.74-1.16,0.86-2.24c0.17-1.38,0.34-2.33,0.52-2.84
			c0.18-0.51,0.51-0.96,0.98-1.34c0.5-0.43,1.08-0.64,1.75-0.64c0.98,0,1.81,0.47,2.5,1.4c0.5,0.69,0.92,1.92,1.27,3.67
			c0.35,1.75,0.52,3.58,0.52,5.49c0,3.77-0.58,6.86-1.75,9.27c-0.64,1.31-1.62,1.97-2.94,1.97c-0.81,0-1.37-0.21-1.68-0.63
			c-0.31-0.42-0.55-1.28-0.72-2.59c-0.36-2.7-1.93-4.04-4.72-4.04c-1.07,0-1.81,0.34-2.2,1.02s-0.59,1.94-0.59,3.78
			c0,1.12,0.08,2.57,0.23,4.35s0.32,2.95,0.48,3.53c0.19,0.72,0.78,1.21,1.77,1.49s2.64,0.41,4.96,0.41c3.58,0,6.27-0.46,8.09-1.38
			c1.81-0.92,3.29-2.58,4.44-4.99c0.67-1.38,1.27-2.31,1.81-2.79s1.23-0.72,2.09-0.72c1,0,1.83,0.44,2.49,1.31
			c0.66,0.87,0.98,1.96,0.98,3.28c0,1.43-0.37,3.22-1.11,5.37c-0.74,2.15-1.65,4.06-2.72,5.73c-0.55,0.81-1,1.35-1.36,1.63
			c-0.36,0.27-0.81,0.41-1.36,0.41c-0.45,0-1.11-0.07-1.97-0.21c-1.53-0.29-3.57-0.47-6.12-0.54h-30.35c-1.22,0-2.16-0.27-2.83-0.81
			c-0.67-0.54-1-1.29-1-2.27c0-0.69,0.14-1.19,0.43-1.5c0.29-0.31,0.94-0.7,1.97-1.18c0.72-0.31,1.25-0.69,1.59-1.15
			c0.34-0.45,0.61-1.12,0.8-2c0.79-3.6,1.18-8.46,1.18-14.57c0-9.21-0.57-15.02-1.72-17.43c-0.24-0.48-0.5-0.81-0.79-1
			c-0.29-0.19-0.88-0.42-1.79-0.68c-1.36-0.41-2.04-1.31-2.04-2.72c0-0.76,0.23-1.44,0.68-2.04c0.45-0.6,1.05-0.99,1.79-1.18
			C446.24,295.57,448.04,295.46,450.72,295.46z"/>
	</g>
</g>
<g>
	<path class="st0" d="M335.66,397.86h-170.8c-7.12,0-12.89-5.77-12.89-12.89v-8.56c0-7.12,5.77-12.89,12.89-12.89h170.8
		c7.12,0,12.89,5.77,12.89,12.89v8.56C348.55,392.09,342.78,397.86,335.66,397.86z"/>
	<g>
		<path d="M186,387.39c-0.41,0-0.79-0.08-1.14-0.26c-0.35-0.17-0.52-0.43-0.52-0.77v-11.57h-2.94c-0.31,0-0.56-0.15-0.74-0.46
			c-0.18-0.31-0.27-0.66-0.27-1.06c0-0.35,0.08-0.69,0.23-1s0.41-0.47,0.77-0.47h9.21c0.35,0,0.61,0.16,0.77,0.47s0.23,0.65,0.23,1
			c0,0.4-0.08,0.75-0.26,1.06c-0.17,0.31-0.42,0.46-0.75,0.46h-2.94v11.57c0,0.34-0.17,0.6-0.52,0.77
			C186.79,387.3,186.41,387.39,186,387.39z"/>
		<path d="M192.65,387.39c-0.3,0-0.61-0.06-0.95-0.18c-0.33-0.12-0.61-0.28-0.84-0.49c-0.23-0.21-0.34-0.44-0.34-0.69
			c0-0.04,0.01-0.12,0.04-0.23l3.96-13c0.11-0.37,0.38-0.65,0.81-0.83c0.43-0.18,0.88-0.28,1.36-0.28c0.5,0,0.96,0.09,1.38,0.28
			c0.42,0.18,0.69,0.46,0.8,0.83l3.99,13c0.03,0.11,0.04,0.19,0.04,0.23c0,0.26-0.11,0.49-0.34,0.69c-0.23,0.21-0.5,0.37-0.83,0.49
			c-0.33,0.12-0.65,0.18-0.96,0.18c-0.27,0-0.5-0.05-0.69-0.14c-0.19-0.09-0.32-0.25-0.39-0.48l-0.72-2.66h-4.5l-0.73,2.66
			c-0.06,0.23-0.18,0.39-0.38,0.48C193.16,387.34,192.92,387.39,192.65,387.39z M195.15,381.55h3.11l-1.56-5.71L195.15,381.55z"/>
		<path d="M208.53,387.6c-0.92,0-1.78-0.13-2.56-0.4c-0.78-0.27-1.41-0.62-1.88-1.03s-0.7-0.86-0.7-1.33c0-0.24,0.06-0.5,0.19-0.78
			s0.3-0.51,0.52-0.71c0.22-0.2,0.47-0.3,0.74-0.3c0.26,0,0.49,0.08,0.71,0.23c0.22,0.16,0.46,0.34,0.73,0.55
			c0.26,0.21,0.57,0.4,0.92,0.55c0.35,0.16,0.77,0.23,1.27,0.23c0.33,0,0.65-0.05,0.97-0.14c0.32-0.09,0.58-0.24,0.79-0.45
			c0.21-0.21,0.31-0.48,0.31-0.82c0-0.37-0.12-0.69-0.36-0.95s-0.56-0.5-0.97-0.71c-0.4-0.21-0.85-0.43-1.32-0.65
			c-0.48-0.22-0.96-0.46-1.44-0.72c-0.48-0.26-0.93-0.58-1.33-0.94c-0.41-0.36-0.73-0.8-0.97-1.31s-0.36-1.12-0.36-1.83
			c0-0.8,0.16-1.47,0.47-2.04c0.31-0.56,0.73-1.02,1.26-1.36c0.53-0.35,1.11-0.6,1.76-0.77c0.65-0.16,1.3-0.25,1.97-0.25
			c0.28,0,0.66,0.02,1.13,0.06c0.47,0.04,0.94,0.13,1.42,0.26s0.88,0.32,1.2,0.56c0.33,0.25,0.49,0.58,0.49,0.99
			c0,0.19-0.05,0.42-0.14,0.69c-0.09,0.28-0.23,0.52-0.43,0.74c-0.19,0.21-0.44,0.32-0.76,0.32c-0.26,0-0.49-0.07-0.71-0.2
			c-0.22-0.13-0.5-0.27-0.83-0.41s-0.79-0.2-1.37-0.2c-0.5,0-0.91,0.06-1.23,0.18c-0.32,0.12-0.55,0.28-0.69,0.47
			c-0.14,0.19-0.21,0.4-0.21,0.63c0,0.3,0.12,0.56,0.36,0.78s0.56,0.43,0.97,0.62c0.4,0.19,0.85,0.39,1.32,0.6s0.96,0.45,1.44,0.72
			c0.48,0.28,0.93,0.61,1.33,0.99c0.41,0.38,0.73,0.85,0.97,1.41c0.24,0.55,0.36,1.21,0.36,1.98c0,1.02-0.23,1.89-0.69,2.59
			c-0.46,0.7-1.09,1.24-1.89,1.6S209.57,387.6,208.53,387.6z"/>
		<path d="M217.16,387.39c-0.41,0-0.79-0.08-1.14-0.26c-0.35-0.17-0.52-0.43-0.52-0.77v-13.56c0-0.35,0.17-0.61,0.52-0.77
			c0.35-0.16,0.73-0.24,1.14-0.24s0.79,0.08,1.14,0.24c0.35,0.16,0.52,0.41,0.52,0.77v5.12l3.99-5.65c0.21-0.31,0.5-0.47,0.87-0.47
			c0.28,0,0.58,0.09,0.88,0.26c0.31,0.17,0.56,0.38,0.77,0.64s0.31,0.53,0.31,0.81c0,0.08-0.01,0.18-0.04,0.3
			c-0.03,0.11-0.09,0.23-0.17,0.34l-3.5,4.39l4.41,6.76c0.11,0.18,0.17,0.37,0.17,0.55c0,0.27-0.1,0.53-0.3,0.79
			c-0.2,0.26-0.45,0.47-0.76,0.63c-0.31,0.16-0.62,0.25-0.95,0.25c-0.23,0-0.44-0.05-0.64-0.14c-0.2-0.09-0.37-0.25-0.51-0.48
			l-3.65-5.54l-0.9,1.15v3.86c0,0.34-0.17,0.6-0.52,0.77C217.95,387.3,217.57,387.39,217.16,387.39z"/>
		<path d="M233.49,387.39c-0.41,0-0.79-0.08-1.14-0.26c-0.35-0.17-0.52-0.43-0.52-0.77v-12.9c0-0.61,0.17-1.04,0.52-1.29
			c0.35-0.25,0.73-0.37,1.14-0.37c0.4,0,0.74,0.03,1.01,0.1c0.28,0.06,0.54,0.21,0.78,0.45c0.24,0.23,0.5,0.61,0.79,1.12l2.2,3.84
			l2.2-3.84c0.3-0.51,0.56-0.88,0.8-1.12s0.49-0.38,0.77-0.45c0.28-0.06,0.61-0.1,1.01-0.1c0.43,0,0.81,0.13,1.15,0.37
			c0.34,0.25,0.51,0.68,0.51,1.29v12.9c0,0.34-0.17,0.6-0.52,0.77c-0.35,0.17-0.73,0.26-1.14,0.26c-0.41,0-0.79-0.08-1.14-0.26
			c-0.35-0.17-0.52-0.43-0.52-0.77v-7.99l-2.05,3.5c-0.14,0.23-0.31,0.39-0.51,0.48s-0.4,0.14-0.6,0.14c-0.18,0-0.37-0.04-0.57-0.13
			c-0.19-0.08-0.35-0.25-0.48-0.49l-2.02-3.71v8.21c0,0.34-0.17,0.6-0.52,0.77C234.28,387.3,233.9,387.39,233.49,387.39z"/>
		<path d="M248.07,387.39c-0.3,0-0.62-0.06-0.95-0.18c-0.33-0.12-0.62-0.28-0.84-0.49c-0.23-0.21-0.34-0.44-0.34-0.69
			c0-0.04,0.01-0.12,0.04-0.23l3.96-13c0.11-0.37,0.38-0.65,0.81-0.83c0.43-0.18,0.88-0.28,1.36-0.28c0.5,0,0.96,0.09,1.38,0.28
			s0.69,0.46,0.8,0.83l3.99,13c0.03,0.11,0.04,0.19,0.04,0.23c0,0.26-0.11,0.49-0.34,0.69c-0.23,0.21-0.5,0.37-0.83,0.49
			c-0.33,0.12-0.65,0.18-0.96,0.18c-0.27,0-0.5-0.05-0.69-0.14c-0.19-0.09-0.32-0.25-0.39-0.48l-0.72-2.66h-4.5l-0.72,2.66
			c-0.06,0.23-0.18,0.39-0.38,0.48C248.57,387.34,248.34,387.39,248.07,387.39z M250.56,381.55h3.11l-1.56-5.71L250.56,381.55z"/>
		<path d="M261.22,387.39c-0.41,0-0.79-0.08-1.14-0.26c-0.35-0.17-0.52-0.43-0.52-0.77v-13.54c0-0.35,0.17-0.61,0.52-0.78
			c0.35-0.16,0.73-0.25,1.14-0.25c0.4,0,0.73,0.03,0.99,0.1c0.26,0.06,0.5,0.21,0.72,0.44s0.47,0.6,0.74,1.13l3.45,6.59v-7.25
			c0-0.35,0.17-0.61,0.52-0.77c0.35-0.16,0.73-0.24,1.14-0.24s0.79,0.08,1.14,0.24c0.35,0.16,0.52,0.41,0.52,0.77v13.56
			c0,0.34-0.17,0.6-0.52,0.77c-0.35,0.17-0.73,0.26-1.14,0.26c-0.38,0-0.74-0.06-1.07-0.17c-0.33-0.11-0.59-0.35-0.79-0.72
			l-4.05-7.38v7.25c0,0.34-0.17,0.6-0.52,0.77C262.01,387.3,261.63,387.39,261.22,387.39z"/>
		<path d="M273.82,387.39c-0.3,0-0.62-0.06-0.95-0.18c-0.33-0.12-0.62-0.28-0.84-0.49c-0.23-0.21-0.34-0.44-0.34-0.69
			c0-0.04,0.01-0.12,0.04-0.23l3.96-13c0.11-0.37,0.38-0.65,0.81-0.83c0.43-0.18,0.88-0.28,1.36-0.28c0.5,0,0.96,0.09,1.38,0.28
			s0.69,0.46,0.8,0.83l3.99,13c0.03,0.11,0.04,0.19,0.04,0.23c0,0.26-0.11,0.49-0.34,0.69c-0.23,0.21-0.5,0.37-0.83,0.49
			c-0.33,0.12-0.65,0.18-0.96,0.18c-0.27,0-0.5-0.05-0.69-0.14c-0.19-0.09-0.32-0.25-0.39-0.48l-0.72-2.66h-4.5l-0.72,2.66
			c-0.06,0.23-0.18,0.39-0.38,0.48C274.32,387.34,274.09,387.39,273.82,387.39z M276.31,381.55h3.11l-1.56-5.71L276.31,381.55z"/>
		<path d="M290.36,387.52c-0.98,0-1.87-0.16-2.65-0.49c-0.79-0.33-1.41-0.86-1.88-1.6s-0.69-1.72-0.69-2.94v-5.65
			c0-1.22,0.23-2.2,0.69-2.94c0.46-0.74,1.08-1.27,1.87-1.6c0.78-0.33,1.63-0.49,2.56-0.49c1.02,0,1.94,0.17,2.74,0.5
			c0.8,0.33,1.44,0.81,1.91,1.44s0.7,1.39,0.7,2.3c0,0.64-0.13,1.06-0.41,1.27c-0.27,0.21-0.69,0.31-1.26,0.31
			c-0.44,0-0.82-0.07-1.15-0.21c-0.33-0.14-0.5-0.41-0.51-0.79c0-0.26-0.03-0.53-0.1-0.83c-0.06-0.3-0.23-0.55-0.49-0.77
			c-0.26-0.21-0.7-0.32-1.31-0.32c-0.61,0-1.08,0.17-1.42,0.52c-0.33,0.35-0.5,0.88-0.5,1.61v5.65c0,0.72,0.17,1.26,0.5,1.61
			c0.33,0.35,0.8,0.52,1.4,0.52s1.07-0.17,1.41-0.52c0.34-0.35,0.51-0.88,0.51-1.61v-0.72h-1.26c-0.31,0-0.56-0.13-0.74-0.39
			s-0.27-0.56-0.27-0.88c0-0.31,0.09-0.6,0.27-0.87c0.18-0.27,0.42-0.41,0.74-0.41h3.58c0.33,0,0.58,0.1,0.75,0.31
			c0.17,0.21,0.26,0.45,0.26,0.74v2.24c0,1.22-0.23,2.2-0.69,2.94c-0.46,0.74-1.09,1.27-1.89,1.6S291.34,387.52,290.36,387.52z"/>
		<path d="M298.97,387.39c-0.36,0-0.69-0.08-0.99-0.26s-0.46-0.43-0.46-0.77v-13.54c0-0.34,0.15-0.6,0.46-0.77
			c0.31-0.17,0.64-0.26,0.99-0.26h7.59c0.36,0,0.61,0.15,0.77,0.46s0.23,0.63,0.23,0.97c0,0.4-0.08,0.74-0.26,1.03
			c-0.17,0.29-0.42,0.44-0.75,0.44h-5.71v3.6h3.2c0.33,0,0.58,0.13,0.75,0.39c0.17,0.26,0.26,0.57,0.26,0.91
			c0,0.28-0.08,0.57-0.23,0.84c-0.16,0.28-0.41,0.42-0.77,0.42h-3.2v3.62h5.71c0.33,0,0.58,0.15,0.75,0.44
			c0.17,0.29,0.26,0.64,0.26,1.03c0,0.34-0.08,0.66-0.23,0.97s-0.41,0.46-0.77,0.46H298.97z"/>
		<path d="M317.73,387.52c-0.21,0-0.42-0.05-0.61-0.14c-0.19-0.09-0.34-0.25-0.46-0.48l-2.92-5.67h-1.41v5.14
			c0,0.34-0.17,0.6-0.52,0.77c-0.35,0.17-0.73,0.26-1.14,0.26s-0.79-0.08-1.14-0.26c-0.35-0.17-0.52-0.43-0.52-0.77v-13.56
			c0-0.27,0.09-0.5,0.28-0.7s0.43-0.3,0.75-0.3h4.41c0.98,0,1.86,0.14,2.65,0.42s1.42,0.75,1.89,1.41c0.47,0.66,0.7,1.57,0.7,2.74
			c0,0.8-0.11,1.48-0.33,2.06c-0.22,0.58-0.53,1.05-0.92,1.42c-0.39,0.37-0.83,0.65-1.33,0.85l2.6,4.71
			c0.04,0.06,0.07,0.12,0.08,0.19c0.01,0.07,0.02,0.13,0.02,0.19c0,0.27-0.11,0.54-0.32,0.81c-0.21,0.27-0.48,0.49-0.8,0.66
			S318.06,387.52,317.73,387.52z M312.34,378.67h2.11c0.6,0,1.07-0.15,1.41-0.44c0.34-0.29,0.51-0.81,0.51-1.54
			c0-0.75-0.17-1.27-0.51-1.56c-0.34-0.28-0.81-0.43-1.41-0.43h-2.11V378.67z"/>
	</g>
</g>
</svg>
